<svg width="263" height="118" viewBox="0 0 263 118" fill="none" xmlns="http://www.w3.org/2000/svg">
<path d="M9.312 42.936L22.752 75.512L38.304 40.376L47.136 42.936L47.264 84.856L38.304 83V61.432L27.744 84.856L19.424 83L19.488 82.872L19.424 82.936L9.312 57.784L9.44 84.856L0.48 83V40.376L9.312 42.936Z" fill="white"/>
<path d="M178.528 69.688C178.144 68.9627 177.163 67.9173 175.584 66.552C171.445 68.088 166.709 68.2587 161.376 67.064L161.44 84.856L152.48 83V40.184C156.363 39.1173 160.693 38.4133 165.472 38.072C170.293 37.7307 173.323 37.9867 174.56 38.84C175.84 39.992 177.845 41.9333 180.576 44.664C183.307 47.3947 185.205 49.3787 186.272 50.616C187.381 51.9813 187.253 54.2 185.888 57.272C184.565 60.344 182.283 62.8827 179.04 64.888C183.563 66.808 186.016 67.9813 186.4 68.408C186.955 69.2187 187.339 70.1573 187.552 71.224C187.808 72.248 187.936 73.1227 187.936 73.848C187.936 74.5733 187.893 75.5973 187.808 76.92C187.723 78.2427 187.68 79.1387 187.68 79.608C187.68 80.0347 187.637 80.696 187.552 81.592C187.509 82.4453 187.488 83.0853 187.488 83.512C187.488 83.9387 187.552 84.472 187.68 85.112C187.808 85.7947 188.021 86.328 188.32 86.712C188.619 87.096 189.067 87.5013 189.664 87.928C190.261 88.3547 191.029 88.7173 191.968 89.016C188.597 89.6987 185.781 89.144 183.52 87.352C181.301 85.6027 180.085 83.0213 179.872 79.608C179.872 79.352 179.829 78.5627 179.744 77.24C179.701 75.9173 179.637 74.9573 179.552 74.36C179.509 73.7627 179.403 72.9947 179.232 72.056C179.061 71.0747 178.827 70.2853 178.528 69.688ZM177.44 46.072C174.923 43.6827 169.547 43.3413 161.312 45.048L161.376 62.968C164.363 63.0107 167.051 62.584 169.44 61.688C171.872 60.7493 173.728 59.576 175.008 58.168C176.288 56.7173 177.269 55.2027 177.952 53.624C178.635 52.0453 178.912 50.5733 178.784 49.208C178.656 47.8427 178.208 46.7973 177.44 46.072Z" fill="white"/>
<path d="M63.8945 76.3906C60.7956 76.3906 58.2695 75.4401 56.3164 73.5391C54.3763 71.638 53.4062 69.1055 53.4062 65.9414V65.3945C53.4062 63.2721 53.8164 61.3776 54.6367 59.7109C55.457 58.0312 56.6159 56.7422 58.1133 55.8438C59.6237 54.9323 61.3424 54.4766 63.2695 54.4766C66.1602 54.4766 68.4323 55.388 70.0859 57.2109C71.7526 59.0339 72.5859 61.6185 72.5859 64.9648V67.2695H59.1289C59.3112 68.6497 59.8581 69.7565 60.7695 70.5898C61.694 71.4232 62.8594 71.8398 64.2656 71.8398C66.4401 71.8398 68.1393 71.0521 69.3633 69.4766L72.1367 72.582C71.2904 73.7799 70.1445 74.7174 68.6992 75.3945C67.2539 76.0586 65.6523 76.3906 63.8945 76.3906ZM63.25 59.0469C62.1302 59.0469 61.2188 59.4245 60.5156 60.1797C59.8255 60.9349 59.3828 62.0156 59.1875 63.4219H67.0391V62.9727C67.013 61.7227 66.6745 60.7591 66.0234 60.082C65.3724 59.3919 64.4479 59.0469 63.25 59.0469ZM81.1016 54.8672L81.2773 57.2305C82.7747 55.3945 84.7995 54.4766 87.3516 54.4766C90.0729 54.4766 91.9414 55.5508 92.957 57.6992C94.4414 55.5508 96.5573 54.4766 99.3047 54.4766C101.596 54.4766 103.302 55.1471 104.422 56.4883C105.542 57.8164 106.102 59.8216 106.102 62.5039V76H100.438V62.5234C100.438 61.3255 100.203 60.4531 99.7344 59.9062C99.2656 59.3464 98.4388 59.0664 97.2539 59.0664C95.5612 59.0664 94.3893 59.8737 93.7383 61.4883L93.7578 76H88.1133V62.543C88.1133 61.319 87.8724 60.4336 87.3906 59.8867C86.9089 59.3398 86.0885 59.0664 84.9297 59.0664C83.3281 59.0664 82.1693 59.7305 81.4531 61.0586V76H75.8086V54.8672H81.1016ZM109.578 65.2383C109.578 63.1419 109.982 61.2734 110.789 59.6328C111.596 57.9922 112.755 56.7227 114.266 55.8242C115.789 54.9258 117.553 54.4766 119.559 54.4766C122.41 54.4766 124.734 55.349 126.531 57.0938C128.341 58.8385 129.35 61.2083 129.559 64.2031L129.598 65.6484C129.598 68.8906 128.693 71.4948 126.883 73.4609C125.073 75.4141 122.645 76.3906 119.598 76.3906C116.551 76.3906 114.116 75.4141 112.293 73.4609C110.483 71.5078 109.578 68.8516 109.578 65.4922V65.2383ZM115.223 65.6484C115.223 67.6536 115.6 69.1901 116.355 70.2578C117.111 71.3125 118.191 71.8398 119.598 71.8398C120.965 71.8398 122.033 71.319 122.801 70.2773C123.569 69.2227 123.953 67.543 123.953 65.2383C123.953 63.2721 123.569 61.7487 122.801 60.668C122.033 59.5872 120.952 59.0469 119.559 59.0469C118.178 59.0469 117.111 59.5872 116.355 60.668C115.6 61.7357 115.223 63.3958 115.223 65.6484Z" fill="white"/>
<path d="M200.125 76H194.461V54.8672H200.125V76ZM194.129 49.3984C194.129 48.5521 194.409 47.8555 194.969 47.3086C195.542 46.7617 196.316 46.4883 197.293 46.4883C198.257 46.4883 199.025 46.7617 199.598 47.3086C200.171 47.8555 200.457 48.5521 200.457 49.3984C200.457 50.2578 200.164 50.9609 199.578 51.5078C199.005 52.0547 198.243 52.3281 197.293 52.3281C196.342 52.3281 195.574 52.0547 194.988 51.5078C194.415 50.9609 194.129 50.2578 194.129 49.3984ZM216.238 70.1602C216.238 69.4701 215.893 68.9297 215.203 68.5391C214.526 68.1354 213.432 67.7773 211.922 67.4648C206.896 66.4102 204.383 64.2747 204.383 61.0586C204.383 59.1836 205.158 57.6211 206.707 56.3711C208.27 55.1081 210.307 54.4766 212.82 54.4766C215.503 54.4766 217.645 55.1081 219.246 56.3711C220.861 57.6341 221.668 59.2747 221.668 61.293H216.023C216.023 60.4857 215.763 59.8216 215.242 59.3008C214.721 58.7669 213.908 58.5 212.801 58.5C211.85 58.5 211.115 58.7148 210.594 59.1445C210.073 59.5742 209.812 60.1211 209.812 60.7852C209.812 61.4102 210.105 61.918 210.691 62.3086C211.29 62.6862 212.293 63.0182 213.699 63.3047C215.105 63.5781 216.29 63.8906 217.254 64.2422C220.236 65.3359 221.727 67.2305 221.727 69.9258C221.727 71.8529 220.9 73.4154 219.246 74.6133C217.592 75.7982 215.457 76.3906 212.84 76.3906C211.069 76.3906 209.493 76.0781 208.113 75.4531C206.746 74.8151 205.672 73.9492 204.891 72.8555C204.109 71.7487 203.719 70.5573 203.719 69.2812H209.07C209.122 70.2839 209.493 71.0521 210.184 71.5859C210.874 72.1198 211.798 72.3867 212.957 72.3867C214.038 72.3867 214.852 72.1849 215.398 71.7812C215.958 71.3646 216.238 70.8242 216.238 70.1602ZM235.105 76.3906C232.007 76.3906 229.48 75.4401 227.527 73.5391C225.587 71.638 224.617 69.1055 224.617 65.9414V65.3945C224.617 63.2721 225.027 61.3776 225.848 59.7109C226.668 58.0312 227.827 56.7422 229.324 55.8438C230.835 54.9323 232.553 54.4766 234.48 54.4766C237.371 54.4766 239.643 55.388 241.297 57.2109C242.964 59.0339 243.797 61.6185 243.797 64.9648V67.2695H230.34C230.522 68.6497 231.069 69.7565 231.98 70.5898C232.905 71.4232 234.07 71.8398 235.477 71.8398C237.651 71.8398 239.35 71.0521 240.574 69.4766L243.348 72.582C242.501 73.7799 241.355 74.7174 239.91 75.3945C238.465 76.0586 236.863 76.3906 235.105 76.3906ZM234.461 59.0469C233.341 59.0469 232.43 59.4245 231.727 60.1797C231.036 60.9349 230.594 62.0156 230.398 63.4219H238.25V62.9727C238.224 61.7227 237.885 60.7591 237.234 60.082C236.583 59.3919 235.659 59.0469 234.461 59.0469Z" fill="white"/>
<path d="M150 5C150 3.34315 151.343 2 153 2H258C259.657 2 261 3.34315 261 5V14C261 15.6569 259.657 17 258 17H153C151.343 17 150 15.6569 150 14V5Z" stroke="#BB86FC" stroke-width="4"/>
<rect x="15" y="101" width="111" height="15" rx="3" stroke="#BB86FC" stroke-width="4"/>
<line x1="139" y1="9" x2="149" y2="9" stroke="#BB86FC" stroke-width="4"/>
<line x1="128" y1="108" x2="138" y2="108" stroke="#BB86FC" stroke-width="4"/>
<path d="M141 10.0211L139.947 110.021" stroke="#BB86FC" stroke-width="4"/>
</svg>
